PathFileType	4	(X/Y/Z)	Walk1.trc
DataRate	CameraRate	NumFrames	NumMarkers	Units	OrigDataRate	OrigDataStartFrame	OrigNumFrames
200.000000	200.000000	5	56	mm	200.000000	841	966
Frame#	Times		LToe		LBHD		RLFC		LACR1		RTH2		C7		LElbow		LUA1		RWRU		LCAR		RMT1		RCAL		LMFC		LWRU		RMT5		RMFC		RTB2		RToe		LWRR		RCAR		RTB3		RTB4		LTH4		RTB1		RFA1		LTH1		LPSI		RElbow		LFHD		RBHD		RPSI		RElbowM		LTH3		T10		RACR1		LASI		LMMAL		LTH2		RTH3		LLFC		LCAL		RMMAL		RBack		RTH1		LTB2		LTB3		RTH4		RFHD		RLMAL		LMT5		RASI		RWRR		LMT1		LLMAL		LTB1		LTB4
			X1	Y1	Z1	X2	Y2	Z2	X3	Y3	Z3	X4	Y4	Z4	X5	Y5	Z5	X6	Y6	Z6	X7	Y7	Z7	X8	Y8	Z8	X9	Y9	Z9	X10	Y10	Z10	X11	Y11	Z11	X12	Y12	Z12	X13	Y13	Z13	X14	Y14	Z14	X15	Y15	Z15	X16	Y16	Z16	X17	Y17	Z17	X18	Y18	Z18	X19	Y19	Z19	X20	Y20	Z20	X21	Y21	Z21	X22	Y22	Z22	X23	Y23	Z23	X24	Y24	Z24	X25	Y25	Z25	X26	Y26	Z26	X27	Y27	Z27	X28	Y28	Z28	X29	Y29	Z29	X30	Y30	Z30	X31	Y31	Z31	X32	Y32	Z32	X33	Y33	Z33	X34	Y34	Z34	X35	Y35	Z35	X36	Y36	Z36	X37	Y37	Z37	X38	Y38	Z38	X39	Y39	Z39	X40	Y40	Z40	X41	Y41	Z41	X42	Y42	Z42	X43	Y43	Z43	X44	Y44	Z44	X45	Y45	Z45	X46	Y46	Z46	X47	Y47	Z47	X48	Y48	Z48	X49	Y49	Z49	X50	Y50	Z50	X51	Y51	Z51	X52	Y52	Z52	X53	Y53	Z53	X54	Y54	Z54	X55	Y55	Z55	X56	Y56	Z56

841	4.205	931.78	140.14	-32.908	517.55	1610.6	-14.545	440.52	503.47	155.75	546.01	1413.6	-120.75	512.76	647.57	147.85	465.9	1475.3	50.704	375.4	1122	-242.04	458.54	1234.4	-203.32	513.09	820.77	326.88	345.06	984.92	-255.88	423	27.25	62.465	215.01	43.277	35.516	617.92	501.65	26.037	412.77	804.28	-257.09	374.05	22.595	143.52	415.72	480.18	28.336	394.8	267.43	132.63	475.73	21.977	106.67	346.88	840.9	-260.83	585.21	809.46	346.15	364.94	187.95	53.548	402.91	268.24	57.314	588.12	678.72	-125.01	443.38	357.58	64.601	486.4	938.57	352.89	558.08	766.18	-137.41	350.49	1039	-2.6277	442.52	1094.5	350.44	698.83	1607.8	11.905	520.61	1605.2	122.24	343.49	1044.1	65.714	404.81	1094.3	272.11	616.85	589.36	-107.33	373.33	1220.9	50.177	571.73	1417.1	202.81	544.88	1024.4	-113.08	774.85	106.37	-5.9397	640.15	700.39	-77.474	443.71	550.97	161.56	623.76	532.09	-102.37	711.81	37.082	-40.725	302.45	72.511	21.371	439.27	1367.7	201.96	450.75	735.42	206.61	719.14	338.66	-98.053	750.94	249.29	-31.005	450.26	641.69	187.19	700.36	1606.6	87.183	271	75.54	97.778	887.43	85.371	-90.132	523.13	985.24	194.96	583.88	853.56	294.42	904.31	97.902	-13.351	761.42	87.396	-87.77	706.32	428.72	-23.208	727.67	338.91	-26.344
842	4.21	945.2	144.81	-32.83	523.11	1609.5	-15.192	443.74	502.65	155.81	551.66	1412.5	-121.18	516.61	646.53	148.19	471.51	1474.4	50.288	379.68	1121.5	-241.86	463.36	1233.6	-203.47	519.49	820.2	327.2	348.66	984.6	-255.71	423.01	27.322	62.601	215.1	43.871	35.576	622.28	499.81	25.813	415.52	803.6	-257.43	374.02	22.554	143.5	419.22	479.52	28.363	396.55	266.85	132.58	475.73	21.889	106.62	349.8	840.54	-260.83	591.64	809.04	346.5	366.04	187.74	53.573	404.59	267.75	57.273	591.74	676.57	-125.25	445.77	356.7	64.675	492.54	937.95	353.1	562.12	764.16	-137.59	355.88	1038.1	-3.3279	448.4	1093.8	350.5	704.36	1606.9	11.317	526.13	1604.3	121.6	348.65	1043.3	64.951	410.69	1093.4	272.21	620.11	587.04	-107.82	378.7	1220	49.686	577.47	1416.2	202.37	550.53	1023	-112.9	789.01	108.22	-5.3159	644.04	697.96	-77.901	447.08	550.26	161.7	627.5	530.41	-102.54	727.33	37.423	-39.459	302.66	72.747	21.376	444.99	1366.9	201.69	454.71	734.64	206.57	727.3	339.03	-98.058	761.73	250.6	-30.878	453.92	640.87	187.1	705.89	1605.8	86.588	271.27	75.934	97.813	901.87	88.844	-89.711	527.65	984.34	195.32	590.21	853.09	294.74	918.69	102.3	-12.999	775.72	88.664	-87.027	712.84	429.12	-23.457	736.34	339.76	-26.429
843	4.215	957.94	149.25	-32.763	528.68	1608.4	-15.858	446.95	501.84	155.87	557.35	1411.4	-121.63	520.49	645.48	148.53	477.13	1473.4	49.841	384.03	1121	-241.71	468.24	1232.8	-203.64	525.85	819.61	327.5	352.35	984.25	-255.55	423.02	27.39	62.739	215.18	44.481	35.644	626.8	498.07	25.568	418.37	802.9	-257.77	373.99	22.522	143.48	422.71	478.85	28.383	398.29	266.28	132.52	475.74	21.822	106.58	352.83	840.16	-260.82	598.02	808.58	346.82	367.14	187.55	53.602	406.26	267.27	57.235	595.4	674.42	-125.51	448.15	355.81	64.745	498.65	937.32	353.28	566.14	762.12	-137.8	361.31	1037.2	-4.0394	454.27	1093.1	350.52	709.91	1606	10.721	531.65	1603.3	120.94	353.86	1042.4	64.182	416.58	1092.6	272.27	623.47	584.75	-108.32	384.12	1219.2	49.162	583.21	1415.4	201.91	556.22	1021.6	-112.72	802.52	110.06	-4.6365	647.98	695.56	-78.383	450.46	549.55	161.81	631.38	528.78	-102.71	742.11	37.849	-38.083	302.88	72.993	21.383	450.71	1366.2	201.39	458.71	733.87	206.53	735.28	339.36	-98.048	772.13	251.88	-30.712	457.59	640.04	186.99	711.43	1604.9	85.982	271.54	76.337	97.854	915.54	92.169	-89.298	532.21	983.44	195.69	596.51	852.58	295.04	932.36	106.53	-12.672	789.28	89.933	-86.224	719.35	429.48	-23.717	744.8	340.57	-26.498
844	4.22	969.97	153.39	-32.714	534.25	1607.3	-16.542	450.14	501.02	155.92	563.07	1410.3	-122.11	524.4	644.42	148.84	482.76	1472.4	49.362	388.45	1120.5	-241.58	473.18	1232	-203.83	532.17	819.01	327.77	356.13	983.89	-255.38	423.03	27.453	62.874	215.26	45.105	35.721	631.5	496.46	25.322	421.35	802.19	-258.08	373.96	22.5	143.46	426.19	478.18	28.394	400.02	265.73	132.47	475.74	21.779	106.56	355.97	839.75	-260.8	604.36	808.09	347.12	368.23	187.37	53.638	407.92	266.79	57.2	599.15	672.31	-125.8	450.52	354.93	64.808	504.75	936.68	353.42	570.18	760.1	-138.04	366.76	1036.3	-4.7567	460.15	1092.4	350.48	715.45	1605.1	10.117	537.17	1602.3	120.26	359.11	1041.5	63.414	422.48	1091.7	272.27	626.97	582.53	-108.84	389.56	1218.3	48.609	588.95	1414.5	201.42	561.95	1020.2	-112.55	815.34	111.83	-3.904	652	693.25	-78.904	453.84	548.83	161.92	635.46	527.24	-102.88	756.09	38.309	-36.595	303.09	73.249	21.392	456.43	1365.4	201.06	462.76	733.1	206.48	743.09	339.6	-98.017	782.12	253.06	-30.502	461.29	639.2	186.85	716.97	1604.1	85.366	271.82	76.749	97.903	928.41	95.271	-88.895	536.81	982.54	196.08	602.78	852.05	295.31	945.28	110.51	-12.374	802.05	91.15	-85.362	725.86	429.78	-23.982	753.06	341.32	-26.544
845	4.225	981.28	157.17	-32.691	539.83	1606.2	-17.247	453.31	500.21	155.94	568.81	1409.1	-122.61	528.33	643.34	149.13	488.4	1471.5	48.85	392.96	1119.9	-241.48	478.18	1231.2	-204.05	538.44	818.38	328	360.01	983.49	-255.23	423.04	27.51	63.004	215.34	45.745	35.808	636.41	495.02	25.095	424.43	801.47	-258.39	373.93	22.488	143.45	429.65	477.5	28.397	401.73	265.19	132.43	475.74	21.759	106.55	359.23	839.32	-260.78	610.65	807.58	347.4	369.32	187.19	53.678	409.57	266.32	57.167	603.03	670.28	-126.11	452.87	354.05	64.866	510.82	936.02	353.52	574.27	758.13	-138.32	372.26	1035.4	-5.4747	466.02	1091.7	350.4	721	1604.2	9.506	542.68	1601.3	119.56	364.41	1040.5	62.653	428.38	1090.9	272.23	630.69	580.41	-109.36	395.05	1217.4	48.029	594.69	1413.7	200.91	567.73	1018.8	-112.38	827.44	113.48	-3.1235	656.11	691.08	-79.447	457.23	548.11	162.01	639.78	525.8	-103.03	769.22	38.755	-35.002	303.3	73.518	21.404	462.15	1364.6	200.69	466.86	732.33	206.42	750.72	339.75	-97.959	791.69	254.13	-30.246	465.02	638.37	186.69	722.5	1603.3	84.739	272.09	77.171	97.961	940.43	98.081	-88.507	541.45	981.64	196.49	609.01	851.49	295.55	957.42	114.16	-12.116	814	92.261	-84.452	732.38	430.03	-24.242	761.11	341.96	-26.562
